# xmcd
#
# Track frame offsets:
#	150
#	14188
#	17081
#	28214
#	29962
#	43079
#	46324
#	51631
#	62085
#	65490
#	68339
#	82096
#	87940
#	101881
#	105150
#	120498
#	133924
#	139111
#	151733
#	163272
#	174682
#	188690
#	203043
#	213851
#	224884
#	238964
#	256698
#	269408
#	279467
#	288972
#	303151
#
# Disc length: 4225 seconds
#
# Revision: 0
# Processed by: cddbd v1.4PL0 Copyright (c) Steve Scherf et al.
# Submitted via: MusicWizard 6.0.0
#
DISCID=da107f1f
DTITLE=Johnny Cash - Strawberry Cake - Pâ Österâker
DYEAR=1900
DGENRE=Country
TTITLE0=Intro/ Big River
TTITLE1=#1
TTITLE2=Doin´ my time
TTITLE3=#2
TTITLE4=I still miss someone
TTITLE5=#3
TTITLE6=Another man done gone
TTITLE7=I got stripes
TTITLE8=#4
TTITLE9=#5
TTITLE10=Chuch in the wildwood
TTITLE11=#6
TTITLE12=Strawberry cake
TTITLE13=#7
TTITLE14=Rock Island Line
TTITLE15=Navajo
TTITLE16=#8
TTITLE17=Destination Victoria Station
TTITLE18=The forth man
TTITLE19=Orleans Parish Prison
TTITLE20=Jacob Green
TTITLE21=Me and Bobby McGee
TTITLE22=The Prisoner´s song
TTITLE23=The Invertebraes
TTITLE24=That silver-haired daddy of mine
TTITLE25=City Jail
TTITLE26=Life of a prisoner
TTITLE27=Looking back in anger
TTITLE28=Nobody cared
TTITLE29=Help me make it thru the night
TTITLE30=I saw a man
EXTD=
EXTT0=
EXTT1=
EXTT2=
EXTT3=
EXTT4=
EXTT5=
EXTT6=
EXTT7=
EXTT8=
EXTT9=
EXTT10=
EXTT11=
EXTT12=
EXTT13=
EXTT14=
EXTT15=
EXTT16=
EXTT17=
EXTT18=
EXTT19=
EXTT20=
EXTT21=
EXTT22=
EXTT23=
EXTT24=
EXTT25=
EXTT26=
EXTT27=
EXTT28=
EXTT29=
EXTT30=
PLAYORDER=
